<svg xmlns="http://www.w3.org/2000/svg" xmlns:xlink="http://www.w3.org/1999/xlink" viewBox="0 0 350 139.29" width="350px" height="140px"><defs><style>.cls-1{isolation:isolate;}.cls-2{fill:url(#linear-gradient);}.cls-3{fill:#25a8e0;}.cls-4{fill:url(#linear-gradient-2);}.cls-5{fill:url(#linear-gradient-3);}.cls-6{fill:url(#linear-gradient-4);}.cls-7{fill:url(#linear-gradient-5);}.cls-8{fill:url(#linear-gradient-6);}.cls-9{fill:url(#linear-gradient-7);}.cls-10,.cls-12{opacity:0.5;}.cls-10{fill:url(#linear-gradient-8);}.cls-11,.cls-17,.cls-19{opacity:0.2;}.cls-11{fill:url(#linear-gradient-9);}.cls-12{fill:url(#linear-gradient-10);}.cls-13{opacity:0.1;}.cls-14{fill:url(#linear-gradient-11);}.cls-15{fill:url(#linear-gradient-12);}.cls-16{opacity:0.27;mix-blend-mode:multiply;fill:url(#radial-gradient);}.cls-17{fill:#c8d23a;}.cls-18{mix-blend-mode:soft-light;fill:url(#linear-gradient-13);}.cls-19{fill:url(#linear-gradient-14);}.cls-20{fill:#305ea9;}</style><linearGradient id="linear-gradient" x1="308.88" y1="5.53" x2="308.88" y2="126.3" gradientUnits="userSpaceOnUse"><stop offset="0" stop-color="#a7c91b"/><stop offset="0.47" stop-color="#48b038"/><stop offset="1" stop-color="#009343"/></linearGradient><linearGradient id="linear-gradient-2" x1="159.66" y1="109.28" x2="159.66" y2="13.98" gradientUnits="userSpaceOnUse"><stop offset="0" stop-color="#3356a4"/><stop offset="0.27" stop-color="#2f6fb6"/><stop offset="0.75" stop-color="#2898d4"/><stop offset="1" stop-color="#25a8e0"/></linearGradient><linearGradient id="linear-gradient-3" x1="131.42" y1="107.2" x2="131.42" y2="-0.2" xlink:href="#linear-gradient-2"/><linearGradient id="linear-gradient-4" x1="95.88" y1="314.8" x2="95.88" y2="269.76" gradientTransform="matrix(0.99, 0.14, -0.14, 0.99, -34.28, -215.56)" gradientUnits="userSpaceOnUse"><stop offset="0.67" stop-color="#196950"/><stop offset="1" stop-color="#3da564"/></linearGradient><linearGradient id="linear-gradient-5" x1="95.88" y1="262.84" x2="95.88" y2="210.38" gradientTransform="matrix(0.99, 0.14, -0.14, 0.99, -34.28, -215.56)" gradientUnits="userSpaceOnUse"><stop offset="0" stop-color="#288264"/><stop offset="0.52" stop-color="#96c33c"/></linearGradient><linearGradient id="linear-gradient-6" x1="95.88" y1="262.84" x2="95.88" y2="210.38" gradientTransform="matrix(0.99, 0.14, -0.14, 0.99, -34.28, -215.56)" gradientUnits="userSpaceOnUse"><stop offset="0.24" stop-color="#9ac249"/><stop offset="1" stop-color="#c5d998"/></linearGradient><linearGradient id="linear-gradient-7" x1="95.01" y1="258.46" x2="100.36" y2="285.21" gradientTransform="matrix(0.99, 0.14, -0.14, 0.99, -34.28, -215.56)" gradientUnits="userSpaceOnUse"><stop offset="0" stop-color="#aac264"/><stop offset="1" stop-color="#387f50"/></linearGradient><linearGradient id="linear-gradient-8" x1="88.62" y1="274.72" x2="105.23" y2="289.77" gradientTransform="matrix(0.99, 0.14, -0.14, 0.99, -34.28, -215.56)" gradientUnits="userSpaceOnUse"><stop offset="0" stop-color="#9ac249"/><stop offset="1" stop-color="#388146"/></linearGradient><linearGradient id="linear-gradient-9" x1="107.04" y1="263.41" x2="119.69" y2="300.67" gradientTransform="matrix(0.99, 0.14, -0.14, 0.99, -34.28, -215.56)" gradientUnits="userSpaceOnUse"><stop offset="0" stop-color="#9ac249"/><stop offset="0.53" stop-color="#388146"/></linearGradient><linearGradient id="linear-gradient-10" x1="94.32" y1="244.47" x2="94.32" y2="266.36" gradientTransform="matrix(0.99, 0.14, -0.14, 0.99, -34.28, -215.56)" gradientUnits="userSpaceOnUse"><stop offset="0.24" stop-color="#9ac249"/><stop offset="1" stop-color="#f4f2ad"/></linearGradient><linearGradient id="linear-gradient-11" x1="70.44" y1="257.11" x2="86.23" y2="257.11" xlink:href="#linear-gradient-10"/><linearGradient id="linear-gradient-12" x1="102.8" y1="242.86" x2="111.32" y2="242.86" xlink:href="#linear-gradient-10"/><radialGradient id="radial-gradient" cx="95.88" cy="263.23" r="36.6" gradientTransform="matrix(0.99, 0.14, -0.14, 0.99, -34.28, -215.56)" gradientUnits="userSpaceOnUse"><stop offset="0" stop-color="#3daa5a" stop-opacity="0.8"/><stop offset="1" stop-color="#216f41"/></radialGradient><linearGradient id="linear-gradient-13" x1="25.21" y1="109.77" x2="25.21" y2="54.38" gradientUnits="userSpaceOnUse"><stop offset="0" stop-color="#78dc8c"/><stop offset="0.53" stop-color="#78bc8c"/><stop offset="1" stop-color="#5aa07d"/></linearGradient><linearGradient id="linear-gradient-14" x1="84.22" y1="281.35" x2="87.95" y2="300.02" xlink:href="#linear-gradient-8"/></defs><title>the-sims-4-create-a-sim-demo-br</title><g class="cls-1"><g id="Layer_2" data-name="Layer 2"><g id="Layer_1-2" data-name="Layer 1"><g id="br"><path class="cls-2" d="M337.9,81.64V5.85H314.5L273.32,58.06c5.69,4.34,10.14,11,10.14,22,0,9.42-3.44,17.4-9.95,23.1a31.31,31.31,0,0,1-5.75,4h45.17v19.15h25V107.12H350V81.64Zm-24.93,0H287.74L313,46.26Z"/><polygon class="cls-3" points="275.62 26.98 276.59 26.98 276.59 23.56 277.87 23.56 277.87 22.7 274.34 22.7 274.35 23.56 275.62 23.56 275.62 26.98"/><polygon class="cls-3" points="279.69 24.09 280.87 25.96 280.95 25.97 282.13 24.09 282.13 26.98 283.05 26.98 283.05 22.7 282.05 22.7 280.93 24.51 279.8 22.7 278.77 22.7 278.77 26.98 279.69 26.98 279.69 24.09"/><path class="cls-4" d="M139.19,23.06v84.06H115.3V93.92a36.59,36.59,0,0,0,4.39-18c0-7.42-1.69-13.1-4.39-17.53V23.06ZM255.5,54.15c-7.3-2.25-11.77-3.84-11.77-8,0-3.43,4.6-5.34,7.78-5.34,5.85,0,9.17,2,13.61,5.84l.79.68L278,32l-.74-.6A42.14,42.14,0,0,0,250.93,22c-14.64,0-30.19,9-30.19,25.75,0,18,13.9,22.48,24.06,25.73,7.32,2.35,11.81,4,11.81,8,0,4.64-6.42,6.15-9.53,6.15-5.93,0-10.9-2.11-14.34-6.09l-.78-.9L224,90.8,211.43,23H191.68l-7.9,34.21-8.64-43.34H155.83l-15.65,93.22h22.75l4.59-29.83,5.35,29.83H194l5.65-30.07,3.84,30.07h23.75l-1-4.4.19.08a46.32,46.32,0,0,0,21.49,5c19.27,0,31.71-10.89,31.71-27.74C279.6,61.59,265.67,57.29,255.5,54.15ZM87.1,45.48c-8.8-2.72-16.4-5.07-16.4-12.18,0-6.12,7.19-9,12.06-9,7.52,0,12.08,2.5,17,6.53l.81.66,12.38-15.7-.84-.64A51.27,51.27,0,0,0,82,5.08C64.71,5.08,46.3,15.64,46.3,35.21c0,21,15.25,25.92,28.7,30.23,8.81,2.81,16.42,5.25,16.42,12.25,0,7.28-8.74,9.73-14.25,9.73-13,0-22.31-9.36-25.21-12.11L39.73,92.94c10.75,8.87,19.68,13.12,28.32,14.76a60.44,60.44,0,0,0,10.15.86c10.54,0,20-2.89,26.56-8.13,7.24-5.73,11.07-14.21,11.07-24.51C115.83,54.34,100.57,49.63,87.1,45.48Z"/><path class="cls-5" d="M120,19.36h-4.58V4.71h-4.88L111.73.39h12.62V4.7h-4.41Zm5.35,0h4.09V10.87c0-1.59.8-2.46,2.09-2.46,1.05,0,1.53.65,1.53,2v9h4.12V9.14a4,4,0,0,0-4.22-4.36A5.08,5.08,0,0,0,129,6.57V0h-3.7Zm20.45-11a3.06,3.06,0,0,1,1.57.43l-5,3.2V11.8a3.3,3.3,0,0,1,3.41-3.42m-.27,11.12a10.61,10.61,0,0,0,6.36-2.33L149.62,14a7.52,7.52,0,0,1-4,1.58,3.53,3.53,0,0,1-2.35-.87l9-5.83c-1.76-2.75-3.91-4.09-6.7-4.09-4.55,0-7.54,3.1-7.55,7.34a7.11,7.11,0,0,0,7.37,7.34"/><polygon class="cls-6" points="50.42 61.25 18.03 109.77 0 54.38 50.42 61.25"/><polygon class="cls-7" points="0 54.38 32.2 5.83 50.42 61.25 0 54.38"/><polygon class="cls-8" points="12.99 56.15 32.25 5.84 37.43 59.48 12.99 56.15"/><polygon class="cls-9" points="37.43 59.48 18.08 109.78 12.99 56.15 37.43 59.48"/><path class="cls-10" d="M29.41,80.32,34.3,67.61c-7.1,2-13.48,4.76-19.59,6.75L16.26,90.7C20.41,87.41,24.85,83.65,29.41,80.32Z"/><path class="cls-11" d="M29.41,80.32a69.71,69.71,0,0,1,13.5-7.8l5-7.52A76.47,76.47,0,0,0,34.3,67.61Z"/><path class="cls-12" d="M17.2,45.16,13,56.15l11.56,1.58c4-4,7.84-8.15,11.57-11.8L35.17,36C29.46,39.1,23.49,42.62,17.2,45.16Z"/><g class="cls-13"><path class="cls-14" d="M3.89,48.51,0,54.38l13,1.77,4.21-11A45.21,45.21,0,0,1,3.89,48.51Z"/><path class="cls-15" d="M36.12,45.93a86.54,86.54,0,0,1,7.16-6.38L41.14,33c-2,.9-4,1.93-6,3Z"/></g><polygon class="cls-16" points="50.42 61.25 18.03 109.77 0 54.38 50.42 61.25"/><polygon class="cls-17" points="0 54.38 32.2 5.83 50.42 61.25 0 54.38"/><polygon class="cls-18" points="50.42 61.25 18.03 109.77 0 54.38 50.42 61.25"/><path class="cls-19" d="M7.16,76.36l5.6,17.19c1.16-.86,2.33-1.91,3.5-2.85L14.71,74.36A63.29,63.29,0,0,1,7.16,76.36Z"/><path class="cls-20" d="M69.05,129.48A9.2,9.2,0,0,1,60,138.81H53.91V120.14H60A9.21,9.21,0,0,1,69.05,129.48Zm-4.09,0a5.7,5.7,0,0,0-5.82-5.74H57.79v11.47h1.35A5.69,5.69,0,0,0,65,129.48Z"/><path class="cls-20" d="M82.72,135.08l-1,3.73H71.33V120.14h10l1,3.73H75.21v3.61h4.92v3.73H75.21v3.87Z"/><path class="cls-20" d="M87,120.14h3.73l3.21,12,3.18-12h3.75L104,138.81h-4l-1.47-9.47L96,138.81H91.93l-2.56-9.47-1.45,9.47H84Z"/><path class="cls-20" d="M124.28,129.42a9.58,9.58,0,1,1-9.57-9.73A9.65,9.65,0,0,1,124.28,129.42Zm-4,0a5.57,5.57,0,1,0-5.56,5.87A5.72,5.72,0,0,0,120.27,129.42Z"/><path class="cls-20" d="M148.69,136.57a8.57,8.57,0,0,1-6.14,2.62c-5,0-9.05-4-9.05-9.74,0-5.39,4.06-9.74,9.05-9.74a8.45,8.45,0,0,1,6.11,2.62L146,124.89a4.92,4.92,0,0,0-3.24-1.23c-2.85,0-5.18,2.72-5.18,5.74a5.43,5.43,0,0,0,5.18,5.73,4.79,4.79,0,0,0,3-1.06Z"/><path class="cls-20" d="M156,131.48H154.8v7.33h-3.88V120.14h5.69c3.21,0,6.73,1.33,6.73,6a4.93,4.93,0,0,1-3.52,4.67l5.33,8h-4.71Zm-1.19-2.67h1.42c1.06,0,3.11-.53,3.11-2.67s-2.05-2.27-3.11-2.27H154.8Z"/><path class="cls-20" d="M170.84,138.81H167V120.14h3.88Z"/><path class="cls-20" d="M183.6,135.08h-5.79l-1.14,3.73H172.5l6.29-18.67h3.83l6.29,18.67h-4.17Zm-1-3.2-1.92-6.22-1.91,6.22Z"/><path class="cls-20" d="M195.56,131.48h-1.19v7.33h-3.88V120.14h5.69c3.21,0,6.73,1.33,6.73,6a4.91,4.91,0,0,1-3.52,4.67l5.33,8H200Zm-1.19-2.67h1.42c1.06,0,3.11-.53,3.11-2.67s-2.05-2.27-3.11-2.27h-1.42Z"/><path class="cls-20" d="M214.2,132.55V120.14h4v11.61s-.2,3.57,3.26,3.57a3.31,3.31,0,0,0,3.55-3.57V120.14h4v12.14c0,6.11-4.74,6.94-7.59,6.94S214.2,138.39,214.2,132.55Z"/><path class="cls-20" d="M234.05,120.14h3.72l3.21,12,3.19-12h3.75l3.1,18.67h-4l-1.48-9.47L243,138.81h-4.06l-2.56-9.47-1.45,9.47h-4Z"/><path class="cls-20" d="M270.41,124.78c-2.07-2.35-5.72-1.87-5.72.38,0,1.44,1.68,1.84,3.73,2.48,5.09,1.54,4.78,5.2,4.78,5.2,0,4.69-3.62,6.45-6.75,6.45a9.4,9.4,0,0,1-6.52-2.26l2.43-3.2a5,5,0,0,0,3.91,1.46c.46,0,2.46-.21,2.46-1.81s-1-1.63-3.88-2.78-4.56-2.08-4.56-5.25,2.82-5.76,6.6-5.76a8.31,8.31,0,0,1,5.8,2.13Z"/><path class="cls-20" d="M279.13,138.81h-3.88V120.14h3.88Z"/><path class="cls-20" d="M283.4,120.14h3.73l3.21,12,3.18-12h3.75l3.11,18.67h-4l-1.47-9.47-2.56,9.47h-4.07l-2.56-9.47-1.45,9.47h-4Z"/></g></g></g></g></svg>